<svg xmlns="http://www.w3.org/2000/svg" xmlns:xlink="http://www.w3.org/1999/xlink" width="500" zoomAndPan="magnify" viewBox="0 0 375 374.999991" height="500" preserveAspectRatio="xMidYMid meet" version="1.0"><defs><g/></defs><g fill="#008ae6" fill-opacity="1"><g transform="translate(49.31673, 210.836743)"><g><path d="M 24.375 -45.46875 C 26.894531 -45.46875 29.390625 -45.179688 31.859375 -44.609375 C 34.328125 -44.035156 36.164062 -43.460938 37.375 -42.890625 L 39.1875 -42.03125 L 34.1875 -32.03125 C 30.75 -33.875 27.476562 -34.796875 24.375 -34.796875 C 22.65625 -34.796875 21.4375 -34.609375 20.71875 -34.234375 C 20 -33.859375 19.640625 -33.15625 19.640625 -32.125 C 19.640625 -31.894531 19.664062 -31.664062 19.71875 -31.4375 C 19.78125 -31.207031 19.894531 -30.988281 20.0625 -30.78125 C 20.238281 -30.582031 20.394531 -30.410156 20.53125 -30.265625 C 20.675781 -30.128906 20.921875 -29.972656 21.265625 -29.796875 C 21.617188 -29.628906 21.894531 -29.5 22.09375 -29.40625 C 22.289062 -29.320312 22.617188 -29.191406 23.078125 -29.015625 C 23.535156 -28.847656 23.878906 -28.71875 24.109375 -28.625 C 24.335938 -28.539062 24.722656 -28.410156 25.265625 -28.234375 C 25.816406 -28.066406 26.238281 -27.957031 26.53125 -27.90625 C 28.3125 -27.382812 29.859375 -26.804688 31.171875 -26.171875 C 32.492188 -25.546875 33.882812 -24.6875 35.34375 -23.59375 C 36.8125 -22.507812 37.945312 -21.132812 38.75 -19.46875 C 39.5625 -17.800781 39.96875 -15.90625 39.96875 -13.78125 C 39.96875 -3.726562 32.988281 1.296875 19.03125 1.296875 C 15.875 1.296875 12.875 0.804688 10.03125 -0.171875 C 7.1875 -1.148438 5.132812 -2.125 3.875 -3.09375 L 1.984375 -4.65625 L 8.1875 -15.078125 C 8.644531 -14.671875 9.242188 -14.191406 9.984375 -13.640625 C 10.734375 -13.097656 12.082031 -12.351562 14.03125 -11.40625 C 15.988281 -10.457031 17.6875 -9.984375 19.125 -9.984375 C 22.28125 -9.984375 23.859375 -11.046875 23.859375 -13.171875 C 23.859375 -14.148438 23.453125 -14.910156 22.640625 -15.453125 C 21.835938 -16.003906 20.472656 -16.625 18.546875 -17.3125 C 16.628906 -18 15.125 -18.628906 14.03125 -19.203125 C 11.28125 -20.640625 9.097656 -22.257812 7.484375 -24.0625 C 5.878906 -25.875 5.078125 -28.273438 5.078125 -31.265625 C 5.078125 -35.742188 6.8125 -39.226562 10.28125 -41.71875 C 13.757812 -44.21875 18.457031 -45.46875 24.375 -45.46875 Z M 24.375 -45.46875 "/></g></g></g><g fill="#008ae6" fill-opacity="1"><g transform="translate(83.587538, 210.836743)"><g><path d="M 49.859375 -19.984375 L 17.828125 -19.984375 C 17.828125 -16.878906 18.832031 -14.582031 20.84375 -13.09375 C 22.851562 -11.601562 25.035156 -10.859375 27.390625 -10.859375 C 29.859375 -10.859375 31.804688 -11.1875 33.234375 -11.84375 C 34.671875 -12.5 36.3125 -13.804688 38.15625 -15.765625 L 49.171875 -10.25 C 44.578125 -2.550781 36.941406 1.296875 26.265625 1.296875 C 19.609375 1.296875 13.894531 -0.984375 9.125 -5.546875 C 4.363281 -10.117188 1.984375 -15.617188 1.984375 -22.046875 C 1.984375 -28.472656 4.363281 -33.984375 9.125 -38.578125 C 13.894531 -43.171875 19.609375 -45.46875 26.265625 -45.46875 C 33.273438 -45.46875 38.972656 -43.441406 43.359375 -39.390625 C 47.753906 -35.347656 49.953125 -29.566406 49.953125 -22.046875 C 49.953125 -21.015625 49.921875 -20.328125 49.859375 -19.984375 Z M 18.265625 -28.421875 L 35.046875 -28.421875 C 34.703125 -30.710938 33.796875 -32.472656 32.328125 -33.703125 C 30.867188 -34.941406 28.992188 -35.5625 26.703125 -35.5625 C 24.171875 -35.5625 22.160156 -34.898438 20.671875 -33.578125 C 19.179688 -32.265625 18.378906 -30.546875 18.265625 -28.421875 Z M 18.265625 -28.421875 "/></g></g></g><g fill="#008ae6" fill-opacity="1"><g transform="translate(127.416933, 210.836743)"><g><path d="M 8.1875 -5.46875 C 4.050781 -9.976562 1.984375 -15.503906 1.984375 -22.046875 C 1.984375 -28.585938 4.050781 -34.125 8.1875 -38.65625 C 12.320312 -43.195312 17.570312 -45.46875 23.9375 -45.46875 C 29.800781 -45.46875 34.625 -43.632812 38.40625 -39.96875 L 38.40625 -44.1875 L 53.65625 -44.1875 L 53.65625 0 L 38.578125 0 L 38.578125 -5 L 38.40625 -5 C 34.625 -0.800781 29.800781 1.296875 23.9375 1.296875 C 17.570312 1.296875 12.320312 -0.957031 8.1875 -5.46875 Z M 21.140625 -29.53125 C 19.160156 -27.582031 18.171875 -25.085938 18.171875 -22.046875 C 18.171875 -19.003906 19.117188 -16.519531 21.015625 -14.59375 C 22.910156 -12.675781 25.40625 -11.71875 28.5 -11.71875 C 31.488281 -11.71875 33.941406 -12.691406 35.859375 -14.640625 C 37.785156 -16.585938 38.75 -19.054688 38.75 -22.046875 C 38.75 -25.085938 37.757812 -27.582031 35.78125 -29.53125 C 33.800781 -31.488281 31.375 -32.46875 28.5 -32.46875 C 25.570312 -32.46875 23.117188 -31.488281 21.140625 -29.53125 Z M 21.140625 -29.53125 "/></g></g></g><g fill="#008ae6" fill-opacity="1"><g transform="translate(178.135412, 210.836743)"><g><path d="M 3.1875 10.859375 L 15.671875 4.734375 C 17.972656 8.523438 21.960938 10.421875 27.640625 10.421875 C 30.285156 10.421875 32.738281 9.570312 35 7.875 C 37.269531 6.1875 38.40625 3.59375 38.40625 0.09375 L 38.40625 -3.1875 C 35.707031 -0.195312 30.882812 1.296875 23.9375 1.296875 C 17.570312 1.296875 12.320312 -0.957031 8.1875 -5.46875 C 4.050781 -9.976562 1.984375 -15.503906 1.984375 -22.046875 C 1.984375 -28.585938 4.050781 -34.125 8.1875 -38.65625 C 12.320312 -43.195312 17.570312 -45.46875 23.9375 -45.46875 C 29.625 -45.46875 34.363281 -43.71875 38.15625 -40.21875 L 38.40625 -40.21875 L 38.40625 -44.1875 L 53.65625 -44.1875 L 53.65625 1.203125 C 53.65625 8.378906 51.269531 13.921875 46.5 17.828125 C 41.738281 21.734375 35.453125 23.6875 27.640625 23.6875 C 15.015625 23.6875 6.863281 19.410156 3.1875 10.859375 Z M 21.140625 -29.53125 C 19.160156 -27.582031 18.171875 -25.085938 18.171875 -22.046875 C 18.171875 -19.003906 19.117188 -16.519531 21.015625 -14.59375 C 22.910156 -12.675781 25.40625 -11.71875 28.5 -11.71875 C 31.488281 -11.71875 33.941406 -12.691406 35.859375 -14.640625 C 37.785156 -16.585938 38.75 -19.054688 38.75 -22.046875 C 38.75 -25.085938 37.757812 -27.582031 35.78125 -29.53125 C 33.800781 -31.488281 31.375 -32.46875 28.5 -32.46875 C 25.570312 -32.46875 23.117188 -31.488281 21.140625 -29.53125 Z M 21.140625 -29.53125 "/></g></g></g><g fill="#008ae6" fill-opacity="1"><g transform="translate(228.853892, 210.836743)"><g><path d="M 6.625 -68.8125 C 8.40625 -70.59375 10.53125 -71.484375 13 -71.484375 C 15.46875 -71.484375 17.59375 -70.59375 19.375 -68.8125 C 21.15625 -67.03125 22.046875 -64.90625 22.046875 -62.4375 C 22.046875 -59.96875 21.15625 -57.84375 19.375 -56.0625 C 17.59375 -54.28125 15.46875 -53.390625 13 -53.390625 C 10.53125 -53.390625 8.40625 -54.28125 6.625 -56.0625 C 4.851562 -57.84375 3.96875 -59.96875 3.96875 -62.4375 C 3.96875 -64.90625 4.851562 -67.03125 6.625 -68.8125 Z M 5.171875 -44.1875 L 5.171875 0 L 20.40625 0 L 20.40625 -44.1875 Z M 5.171875 -44.1875 "/></g></g></g><g fill="#008ae6" fill-opacity="1"><g transform="translate(246.763133, 210.836743)"><g><path d="M 5.171875 0 L 5.171875 -44.1875 L 20.40625 -44.1875 L 20.40625 -39.53125 L 20.578125 -39.53125 C 24.546875 -43.488281 28.769531 -45.46875 33.25 -45.46875 C 35.425781 -45.46875 37.585938 -45.179688 39.734375 -44.609375 C 41.890625 -44.035156 43.957031 -43.144531 45.9375 -41.9375 C 47.925781 -40.738281 49.535156 -39.03125 50.765625 -36.8125 C 52.003906 -34.601562 52.625 -32.035156 52.625 -29.109375 L 52.625 0 L 37.375 0 L 37.375 -24.96875 C 37.375 -27.269531 36.640625 -29.28125 35.171875 -31 C 33.710938 -32.726562 31.804688 -33.59375 29.453125 -33.59375 C 27.160156 -33.59375 25.078125 -32.703125 23.203125 -30.921875 C 21.335938 -29.140625 20.40625 -27.15625 20.40625 -24.96875 L 20.40625 0 Z M 5.171875 0 "/></g></g></g><g fill="#008ae6" fill-opacity="1"><g transform="translate(295.587123, 210.836743)"><g><path d="M 14.984375 -18.4375 C 17.742188 -18.4375 20.082031 -17.472656 22 -15.546875 C 23.925781 -13.617188 24.890625 -11.28125 24.890625 -8.53125 C 24.890625 -5.832031 23.925781 -3.519531 22 -1.59375 C 20.082031 0.332031 17.742188 1.296875 14.984375 1.296875 C 12.285156 1.296875 9.972656 0.332031 8.046875 -1.59375 C 6.128906 -3.519531 5.171875 -5.832031 5.171875 -8.53125 C 5.171875 -11.28125 6.128906 -13.617188 8.046875 -15.546875 C 9.972656 -17.472656 12.285156 -18.4375 14.984375 -18.4375 Z M 14.984375 -18.4375 "/></g></g></g></svg>